<svg width="1201" height="240" viewBox="0 0 1201 240" fill="none" xmlns="http://www.w3.org/2000/svg">
<path d="M1128.29 70.2538C1141.69 70.2538 1153.83 73.3291 1164.69 79.4872C1175.67 85.6538 1184.38 95.0098 1190.83 107.53C1197.29 120.066 1200.5 135.87 1200.5 154.917C1200.5 173.637 1197.29 189.277 1190.83 201.811V201.813C1184.38 214.224 1175.67 223.578 1164.7 229.853L1164.7 229.852C1153.83 236.121 1141.69 239.252 1128.29 239.252C1114.68 239.252 1102.33 236.122 1091.27 229.854L1091.27 229.853C1080.29 223.578 1071.58 214.224 1065.13 201.813L1065.13 201.811C1058.67 189.277 1055.46 173.637 1055.46 154.917C1055.46 135.87 1058.67 120.066 1065.13 107.53C1071.58 95.0098 1080.29 85.6538 1091.27 79.4872L1091.27 79.4862C1102.34 73.3287 1114.68 70.2538 1128.29 70.2538ZM1129.51 104.657C1122.38 104.657 1116.07 106.541 1110.56 110.301L1110.56 110.305C1105.06 113.952 1100.69 119.489 1097.47 126.952C1094.35 134.404 1092.78 143.719 1092.78 154.917C1092.78 171.458 1095.87 183.831 1101.98 192.113L1102.57 192.877C1108.72 200.644 1116.87 204.521 1127.06 204.521C1134.09 204.521 1140.3 202.691 1145.71 199.04C1151.21 195.283 1155.52 189.744 1158.65 182.393L1158.65 182.389C1161.87 175.047 1163.49 165.896 1163.49 154.917C1163.49 138.154 1160.39 125.615 1154.28 117.223L1154.28 117.22C1148.27 108.839 1140.03 104.657 1129.51 104.657Z" stroke="#7431E4" stroke-opacity="0.4"/>
<path d="M1009.43 74.1836V234.667H972.418V74.1836H1009.43ZM990.923 0.5C997.943 0.500029 1003.53 2.60877 1007.61 6.87207L1007.98 7.26562C1011.81 11.3749 1013.7 16.8367 1013.7 23.5967C1013.7 30.788 1011.69 36.4938 1007.61 40.6484L1007.6 40.6533C1003.52 44.6967 997.938 46.6924 990.923 46.6924C983.808 46.6924 978.175 44.6982 974.092 40.6533L974.082 40.6436C970.105 36.4884 968.145 30.7844 968.145 23.5967C968.145 16.622 970.108 11.0283 974.082 6.87598C978.164 2.60806 983.8 0.5 990.923 0.5Z" stroke="#7431E4" stroke-opacity="0.4"/>
<path d="M913.395 9.01459V234.667H876.385V9.01459H913.395Z" stroke="#7431E4" stroke-opacity="0.4"/>
<path d="M762.324 70.2538C775.728 70.2538 787.868 73.3291 798.731 79.4872C809.711 85.6538 818.422 95.0098 824.87 107.53C831.325 120.066 834.539 135.87 834.539 154.917C834.539 173.637 831.325 189.277 824.87 201.811L824.869 201.813C818.421 214.224 809.711 223.578 798.735 229.853L798.734 229.852C787.87 236.121 775.73 239.252 762.324 239.252C748.715 239.252 736.372 236.122 725.305 229.854L725.303 229.853C714.327 223.578 705.616 214.224 699.168 201.813L699.167 201.811C692.713 189.277 689.5 173.637 689.5 154.917C689.5 135.87 692.712 120.066 699.167 107.53C705.615 95.0098 714.326 85.6538 725.306 79.4872L725.308 79.4862C736.374 73.3287 748.716 70.2538 762.324 70.2538ZM763.544 104.657C756.416 104.657 750.107 106.541 744.601 110.301L744.595 110.305C739.098 113.952 734.729 119.489 731.503 126.952C728.385 134.404 726.814 143.719 726.814 154.917C726.814 171.458 729.91 183.831 736.022 192.113L736.611 192.877C742.756 200.644 750.906 204.521 761.103 204.521C768.132 204.521 774.34 202.691 779.744 199.04C785.244 195.283 789.563 189.744 792.686 182.393L792.688 182.389L792.985 181.694C796.007 174.473 797.529 165.553 797.529 154.917C797.529 138.154 794.432 125.615 788.317 117.223L788.315 117.22C782.308 108.839 774.068 104.657 763.544 104.657Z" stroke="#7431E4" stroke-opacity="0.4"/>
<path d="M645.693 6.39484C650.703 6.39484 655.864 6.77891 661.175 7.5462C666.476 8.31196 671.625 9.24196 676.622 10.3362L677.118 10.4446L677.001 10.9388L669.983 40.7405L669.851 41.2991L669.316 41.0921C666.8 40.1203 664.183 39.3639 661.464 38.8235L661.455 38.8216L661.446 38.8196C658.733 38.1728 656.127 37.8509 653.627 37.8509C650.852 37.8509 648.229 38.435 645.753 39.6038L645.738 39.6116C643.312 40.6531 641.302 42.5334 639.718 45.2952C638.151 48.029 637.343 51.8067 637.343 56.6722V74.8382H664.502V101.382H637.343V234.667H600.028V101.382H578.056V74.8382H600.028V56.0169C600.028 44.4989 602.123 35.071 606.351 27.7669C610.565 20.4867 616.127 15.1196 623.038 11.6878C630.027 8.15807 637.582 6.39484 645.693 6.39484Z" stroke="#7431E4" stroke-opacity="0.4"/>
<path d="M510.232 32.5932V74.8383H550.514V101.382H510.232V188.647C510.232 195.133 511.669 199.905 514.455 203.052C517.231 206.188 521.422 207.796 527.126 207.796C530.645 207.796 534.165 207.364 537.688 206.5C541.223 205.633 545.272 204.331 549.836 202.589L550.393 202.376L550.505 202.962L555.693 230.144L555.769 230.541L555.396 230.699C549.685 233.106 544.124 235.131 538.715 236.774C533.275 238.426 527.58 239.252 521.633 239.252C512.817 239.252 504.706 237.491 497.31 233.963L497.308 233.962C489.994 230.425 484.125 225.008 479.703 217.725L479.7 217.721C475.37 210.418 473.222 201.153 473.222 189.957V101.382H452.471V74.8383H473.222V32.5932H510.232Z" stroke="#7431E4" stroke-opacity="0.4"/>
<path d="M427.771 71.8911C430.232 71.8911 432.545 72.0569 434.708 72.3882L434.709 72.3872C436.972 72.7184 439.184 73.216 441.345 73.8784L441.704 73.9878L441.698 74.3638L441.088 113.006L441.078 113.635L440.468 113.484C437.841 112.833 435.01 112.291 431.973 111.856C428.939 111.422 426.216 111.207 423.804 111.207C415.961 111.207 409.41 113.255 404.12 117.325L404.118 117.326C398.927 121.29 394.957 127.2 392.234 135.097L392.235 135.098C389.613 143 388.294 152.768 388.294 164.414V234.668H351.284V74.1831H388.294V103.636C392.206 94.3319 397.008 87.1131 402.719 82.0064C410.226 75.2747 418.581 71.8912 427.771 71.8911Z" stroke="#7431E4" stroke-opacity="0.4"/>
<path d="M237.222 70.2538C250.627 70.2538 262.767 73.3291 273.629 79.4872C284.609 85.6538 293.32 95.0098 299.768 107.53C306.224 120.066 309.437 135.87 309.437 154.917C309.437 173.637 306.223 189.277 299.768 201.811V201.813C293.32 214.224 284.61 223.578 273.633 229.853L273.632 229.852C262.769 236.121 250.628 239.252 237.222 239.252C223.613 239.252 211.27 236.122 200.204 229.854L200.202 229.853C189.225 223.578 180.515 214.224 174.067 201.813L174.066 201.811C167.611 189.277 164.398 173.637 164.398 154.917C164.398 135.87 167.61 120.066 174.066 107.53C180.514 95.0098 189.225 85.6538 200.205 79.4872L200.207 79.4862C211.272 73.3287 223.615 70.2538 237.222 70.2538ZM238.443 104.657C231.314 104.657 225.005 106.541 219.5 110.301L219.494 110.305C213.996 113.952 209.627 119.489 206.402 126.952C203.283 134.404 201.712 143.719 201.712 154.917C201.712 171.458 204.808 183.831 210.92 192.113L211.509 192.877C217.655 200.644 225.804 204.521 236.001 204.521C243.03 204.521 249.238 202.691 254.642 199.04C260.143 195.283 264.462 189.744 267.584 182.393L267.586 182.389C270.806 175.047 272.427 165.896 272.427 154.917C272.427 138.154 269.331 125.615 263.215 117.223L263.213 117.22C257.206 108.839 248.966 104.657 238.443 104.657Z" stroke="#7431E4" stroke-opacity="0.4"/>
<path d="M70.8828 21.1314C93.2482 21.1314 110.73 27.0509 123.259 38.9527H123.258C135.894 50.8595 142.182 67.7071 142.182 89.4204C142.182 110.917 135.892 127.653 123.258 139.559C110.729 151.461 93.2482 157.381 70.8828 157.381H37.8145V234.668H0.5V21.1314H70.8828ZM37.8145 122.651H70.8828C81.9775 122.651 90.2666 119.515 95.8408 113.32C101.442 107.094 104.257 99.1415 104.257 89.4204C104.257 79.4782 101.44 71.3608 95.8379 65.0269C90.263 58.7239 81.9749 55.5347 70.8828 55.5347H37.8145V122.651Z" stroke="#7431E4" stroke-opacity="0.4"/>
</svg>
